<svg width="54" height="57" viewBox="0 0 54 57" fill="none" xmlns="http://www.w3.org/2000/svg">
<g filter="url(#filter0_d_22_256)">
<path fill-rule="evenodd" clip-rule="evenodd" d="M27 15.1393C24.2373 15.1393 21.5878 16.228 19.6343 18.1659C17.6808 20.1038 16.5833 22.7322 16.5833 25.4728C16.5833 28.2134 17.6808 30.8417 19.6343 32.7796C21.5878 34.7175 24.2373 35.8062 27 35.8062C29.7627 35.8062 32.4122 34.7175 34.3657 32.7796C36.3192 30.8417 37.4167 28.2134 37.4167 25.4728C37.4167 22.7322 36.3192 20.1038 34.3657 18.1659C32.4122 16.228 29.7627 15.1393 27 15.1393ZM20.75 25.4728C20.75 27.1171 21.4085 28.6941 22.5806 29.8569C23.7527 31.0196 25.3424 31.6728 27 31.6728C28.6576 31.6728 30.2473 31.0196 31.4194 29.8569C32.5915 28.6941 33.25 27.1171 33.25 25.4728C33.25 23.8284 32.5915 22.2514 31.4194 21.0887C30.2473 19.9259 28.6576 19.2727 27 19.2727C25.3424 19.2727 23.7527 19.9259 22.5806 21.0887C21.4085 22.2514 20.75 23.8284 20.75 25.4728Z" fill="#4694DC"/>
<path d="M39.5 11.0059C38.9475 11.0059 38.4176 11.2237 38.0269 11.6112C37.6362 11.9988 37.4167 12.5245 37.4167 13.0726C37.4167 13.6207 37.6362 14.1464 38.0269 14.534C38.4176 14.9216 38.9475 15.1393 39.5 15.1393C40.0526 15.1393 40.5825 14.9216 40.9732 14.534C41.3639 14.1464 41.5834 13.6207 41.5834 13.0726C41.5834 12.5245 41.3639 11.9988 40.9732 11.6112C40.5825 11.2237 40.0526 11.0059 39.5 11.0059Z" fill="#4694DC"/>
<path fill-rule="evenodd" clip-rule="evenodd" d="M12.4167 2.73917C10.2065 2.73917 8.08692 3.61013 6.52412 5.16045C4.96132 6.71077 4.08334 8.81345 4.08334 11.0059V39.9396C4.08334 42.1321 4.96132 44.2348 6.52412 45.7851C8.08692 47.3354 10.2065 48.2064 12.4167 48.2064H41.5833C43.7935 48.2064 45.9131 47.3354 47.4759 45.7851C49.0387 44.2348 49.9167 42.1321 49.9167 39.9396V11.0059C49.9167 8.81345 49.0387 6.71077 47.4759 5.16045C45.9131 3.61013 43.7935 2.73917 41.5833 2.73917H12.4167ZM41.5833 6.87255H12.4167C11.3116 6.87255 10.2518 7.30803 9.4704 8.08319C8.689 8.85835 8.25001 9.90969 8.25001 11.0059V39.9396C8.25001 41.0359 8.689 42.0872 9.4704 42.8624C10.2518 43.6375 11.3116 44.073 12.4167 44.073H41.5833C42.6884 44.073 43.7482 43.6375 44.5296 42.8624C45.311 42.0872 45.75 41.0359 45.75 39.9396V11.0059C45.75 9.90969 45.311 8.85835 44.5296 8.08319C43.7482 7.30803 42.6884 6.87255 41.5833 6.87255Z" fill="#4694DC"/>
</g>
<defs>
<filter id="filter0_d_22_256" x="-2" y="0.672485" width="58" height="57.6006" filterUnits="userSpaceOnUse" color-interpolation-filters="sRGB">
<feFlood flood-opacity="0" result="BackgroundImageFix"/>
<feColorMatrix in="SourceAlpha" type="matrix" values="0 0 0 0 0 0 0 0 0 0 0 0 0 0 0 0 0 0 127 0" result="hardAlpha"/>
<feOffset dy="4"/>
<feGaussianBlur stdDeviation="2"/>
<feComposite in2="hardAlpha" operator="out"/>
<feColorMatrix type="matrix" values="0 0 0 0 0 0 0 0 0 0 0 0 0 0 0 0 0 0 0.25 0"/>
<feBlend mode="normal" in2="BackgroundImageFix" result="effect1_dropShadow_22_256"/>
<feBlend mode="normal" in="SourceGraphic" in2="effect1_dropShadow_22_256" result="shape"/>
</filter>
</defs>
</svg>
